PathFileType	4	(X/Y/Z)	C:/Users/opensim2020/Desktop/walking_exp_matlab/subject01_walking13_straight_02.trc																																																																																																																												
DataRate	CameraRate	NumFrames	NumMarkers	Units	OrigDataRate	OrigDataStartFrame	OrigNumFrames																																																																																																																								
100	100	5	42	mm	100	1196	172																																																																																																																								
Frame#	Time	LFHD			RFHD			LBHD			RBHD			C7			T10			CLAV			STRN			RBAK			LSHO			LUPA			LELB			LFRM			LWRA			LWRB			LFIN			RSHO			RUPA			RELB			RFRM			RWRA			RWRB			RFIN			LASI			RASI			LPSI			RPSI			LTHI			LKNE			LTIB			LANK			LHEE			LTOE			RTHI			RKNE			RTIB			RANK			RHEE			RTOE			*39			*40			*41		
		X1	Y1	Z1	X2	Y2	Z2	X3	Y3	Z3	X4	Y4	Z4	X5	Y5	Z5	X6	Y6	Z6	X7	Y7	Z7	X8	Y8	Z8	X9	Y9	Z9	X10	Y10	Z10	X11	Y11	Z11	X12	Y12	Z12	X13	Y13	Z13	X14	Y14	Z14	X15	Y15	Z15	X16	Y16	Z16	X17	Y17	Z17	X18	Y18	Z18	X19	Y19	Z19	X20	Y20	Z20	X21	Y21	Z21	X22	Y22	Z22	X23	Y23	Z23	X24	Y24	Z24	X25	Y25	Z25	X26	Y26	Z26	X27	Y27	Z27	X28	Y28	Z28	X29	Y29	Z29	X30	Y30	Z30	X31	Y31	Z31	X32	Y32	Z32	X33	Y33	Z33	X34	Y34	Z34	X35	Y35	Z35	X36	Y36	Z36	X37	Y37	Z37	X38	Y38	Z38	X39	Y39	Z39	X40	Y40	Z40	X41	Y41	Z41	X42	Y42	Z42
																																																																																																																															
108	1.07	123.22041	1650.67957	-1569.87732	132.92653	1657.87598	-1456.88086	5.4465	1610.3385	-1565.32532	12.68923	1616.9928	-1444.61804	-40.68353	1418.00562	-1509.01611	-78.61819	1124.27942	-1481.94958	102.72984	1347.86755	-1509.4906	146.24857	1194.6333	-1507.19153	-94.73679	1227.27759	-1418.08984	34.18077	1368.40649	-1669.92957	-20.33418	1189.43896	-1745.68079	-55.19114	1040.29565	-1743.34497	-20.83809	928.73688	-1760.90063	55.67142	813.44818	-1735.17346	-0.462	808.69672	-1758.08691	43.75356	739.198	-1768.79492	44.44172	1384.76355	-1356.52051	-23.95709	1196.48633	-1243.55554	-28.23008	1068.03223	-1232.42969	40.72171	961.57092	-1218.04822	153.48149	889.01715	-1262.00769	121.66388	869.23151	-1217.99634	189.62221	822.99017	-1226.32483	102.42896	926.5011	-1591.01575	99.22196	916.12262	-1373.46802	-84.82648	929.32178	-1540.78528	-83.70454	921.71912	-1396.78015	122.38073	599.99707	-1648.10901	139.13673	466.45251	-1626.88977	87.61731	282.84659	-1631.68445	54.44659	69.38036	-1573.82251	10.31952	40.97712	-1519.44812	201.10722	32.23936	-1583.84375	80.59238	576.63867	-1312.53333	91.4467	420.53641	-1326.8689	-66.24409	344.74609	-1317.69165	-242.39107	240.19901	-1359.02039	-291.44675	261.31421	-1415.31201	-234.36514	95.3994	-1353.47681	122.74426	1691.0437	-1480.88721	-1973.09387	1023.95154	3102.17725	-2012.50305	1022.05518	3140.75635
109	1.08	136.79358	1651.84521	-1570.78247	145.95251	1659.12585	-1457.71899	18.7635	1612.19812	-1566.78979	25.40048	1618.96326	-1446.0509	-28.48186	1419.67188	-1510.30225	-66.66743	1125.94519	-1483.3927	114.94556	1349.50464	-1510.13489	158.23131	1196.19006	-1507.8822	-82.8862	1228.83752	-1419.75952	46.99884	1370.0238	-1670.77917	-4.83293	1190.75635	-1747.2865	-37.30553	1040.89331	-1746.3114	0.34244	930.40686	-1764.06543	79.85387	817.22113	-1738.44324	24.01568	810.96094	-1761.73303	70.22398	742.89056	-1772.52612	56.2098	1386.36951	-1357.198	-13.03842	1198.1394	-1244.74048	-17.88887	1069.74158	-1233.97131	47.60576	961.54224	-1218.58228	158.69472	885.69287	-1261.35254	126.13441	866.90723	-1217.43164	192.93085	818.83746	-1225.05664	115.26134	928.03198	-1592.79456	111.71059	918.35272	-1374.76831	-72.93798	930.89056	-1541.64978	-71.01665	923.60736	-1397.41919	129.71201	599.85571	-1648.52124	143.35025	465.74228	-1627.27454	89.90163	282.5856	-1632.0741	54.76925	69.52206	-1573.85828	10.4888	41.46996	-1519.34192	201.17076	32.18655	-1584.00049	101.03241	579.49255	-1314.81165	116.3251	423.8786	-1329.68005	-40.25885	346.49167	-1321.35291	-215.45656	240.10876	-1362.47253	-266.3981	259.44525	-1418.04761	-200.63127	96.38837	-1356.66052	136.0822	1692.31445	-1481.78845	-1973.0752	1023.46643	3101.89429	-2012.51147	1022.02881	3140.55835
110	1.09	150.32146	1652.95837	-1571.42871	158.96954	1660.2467	-1458.3595	32.03234	1614.06714	-1568.06262	38.06137	1620.91162	-1447.3446	-16.57607	1421.52954	-1511.6626	-54.74665	1127.48315	-1484.67212	127.02631	1351.08643	-1510.80774	170.06613	1197.69031	-1508.55786	-71.13128	1230.3938	-1421.21143	59.61041	1371.7085	-1671.58557	10.48421	1192.14697	-1748.87134	-19.54167	1041.70337	-1749.20679	21.30564	932.37415	-1767.15271	104.01888	821.38361	-1741.61938	48.61219	813.7276	-1765.28406	96.96281	747.14758	-1776.23267	66.57703	1388.26794	-1358.70471	-2.31896	1199.81812	-1245.97131	-7.60932	1071.52466	-1235.46082	54.78288	961.66846	-1219.10193	164.22803	882.72327	-1260.35608	130.52238	864.84576	-1216.88977	195.98886	814.7533	-1223.65906	125.42868	928.57294	-1594.0957	123.59933	920.29517	-1376.30261	-61.14213	932.49567	-1542.41089	-58.84449	925.87299	-1398.19263	136.81943	599.72992	-1648.75269	147.38908	465.26971	-1627.76489	91.95383	282.32886	-1632.28748	55.16468	69.77861	-1573.84241	10.59791	42.06516	-1519.31738	201.26913	32.06881	-1584.13696	121.15323	582.77014	-1316.97253	140.6987	427.35431	-1332.4541	-14.52284	348.29077	-1324.52563	-187.79878	238.43442	-1365.72913	-240.96414	255.8708	-1420.77295	-165.57307	96.09135	-1360.27307	149.45128	1693.52478	-1482.51355	-1973.04089	1023.979	3102.20923	-2012.57544	1022.00903	3140.68799
111	1.1	163.89444	1654.03137	-1571.88892	171.89726	1661.26794	-1458.76587	45.29023	1615.94812	-1569.19128	50.7153	1622.72412	-1448.40686	-4.29126	1422.74243	-1512.66919	-42.83361	1128.98108	-1485.90967	139.12569	1352.70947	-1511.47314	181.86781	1199.12769	-1509.21313	-59.41877	1231.94165	-1422.47241	72.16935	1373.39966	-1672.32153	25.59082	1193.6377	-1750.40027	-1.98145	1042.62085	-1752.00903	42.2233	934.63885	-1770.14502	128.3089	826.21948	-1744.88831	73.30297	816.88007	-1768.58521	123.81676	752.04816	-1779.93738	78.43597	1389.66187	-1359.20276	8.36974	1201.41504	-1247.11548	2.51252	1073.26514	-1236.90308	61.83371	961.98303	-1219.51099	169.17528	879.62903	-1259.36169	134.71332	862.89099	-1216.02417	198.75827	810.82892	-1222.18176	137.0611	929.75922	-1595.52002	135.7504	922.22839	-1377.89917	-49.41841	934.08411	-1543.09473	-46.39706	928.14648	-1398.6687	144.06792	600.1286	-1649.15308	151.24622	465.02319	-1628.19141	93.86536	282.38718	-1632.35034	55.55118	70.11652	-1573.73364	10.61649	42.89814	-1519.31067	201.43089	32.07799	-1584.25415	140.87962	585.86639	-1319.27905	164.69382	431.44385	-1335.4187	10.87949	349.9079	-1327.99854	-159.52527	235.25076	-1369.15442	-214.79964	250.59985	-1423.17456	-130.05792	94.47788	-1364.41809	162.71162	1694.59387	-1482.93958	-1973.0061	1023.95435	3102.13013	-2012.53198	1022.06818	3140.70703
112	1.11	177.32584	1655.06897	-1572.17676	184.77483	1662.17468	-1458.95703	58.49717	1617.78369	-1570.12244	63.31588	1624.45752	-1449.33948	7.51068	1424.15857	-1513.76086	-30.91928	1130.33069	-1487.13953	151.02608	1354.18091	-1512.11584	193.63782	1200.53943	-1509.91394	-47.73075	1233.35522	-1423.53162	84.56856	1375.16052	-1673.02063	40.43683	1195.15454	-1751.93494	15.4584	1043.71777	-1754.81152	63.06639	937.10712	-1773.10242	152.61794	831.4754	-1747.96399	97.93887	820.4895	-1771.82104	150.71027	757.59406	-1783.58972	89.83964	1391.02954	-1360.04224	19.00815	1202.91248	-1248.26331	12.47827	1074.9458	-1238.29407	68.83356	962.29956	-1219.77209	174.01926	876.58887	-1258.28308	138.82599	861.05847	-1215.06677	201.38168	807.12494	-1220.63367	148.60995	931.02502	-1596.92603	148.03998	924.24725	-1379.63306	-37.71866	935.63062	-1543.59949	-33.84734	930.16187	-1398.99731	150.60968	600.25439	-1649.35339	154.8743	464.82086	-1628.54053	95.853	282.66965	-1632.48962	55.80523	70.58854	-1573.59961	10.8795	43.55359	-1519.02051	201.62009	32.05891	-1584.39856	160.62413	589.02252	-1321.28479	188.05008	435.53186	-1338.05005	35.97814	351.18716	-1331.44177	-130.82967	230.8018	-1372.24292	-187.78763	243.69421	-1425.62524	-93.79736	92.11314	-1368.61328	176.0417	1695.65686	-1483.23267	-1973.06458	1023.34686	3102.02856	-2012.43652	1022.00366	3140.74146
